<svg width="87" height="34" viewBox="0 0 87 34" fill="none" xmlns="http://www.w3.org/2000/svg">
<g clip-path="url(#clip0)">
<path d="M12.8545 32.9997H4V11.8452H12.4968C16.6266 11.8452 19.0337 14.1629 19.0337 17.7871C19.0337 20.1359 17.4899 21.6486 16.4205 22.1541C17.6998 22.7491 19.3331 24.0868 19.3331 26.91C19.3331 30.8609 16.6266 32.9997 12.8545 32.9997ZM12.1701 15.5278H8.12978V20.4042H12.1701C13.9239 20.4042 14.9039 19.4243 14.9039 17.966C14.9039 16.5116 13.9239 15.5278 12.1701 15.5278ZM12.4384 24.1179H8.12978V29.3171H12.4384C14.3089 29.3171 15.2033 28.1271 15.2033 26.7039C15.2033 25.2767 14.3089 24.1179 12.4384 24.1179Z" fill="white"/>
<path d="M31.9303 24.324V32.9997H27.8316V24.324L21.4736 11.8452H25.9612L29.9121 20.3731L33.8047 11.8452H38.2922L31.9303 24.324Z" fill="white"/>
<path d="M49.9942 32.9997H41.1396V11.8452H49.6364C53.7662 11.8452 56.1733 14.1629 56.1733 17.7871C56.1733 20.1359 54.6295 21.6486 53.5601 22.1541C54.8395 22.7491 56.4728 24.0868 56.4728 26.91C56.4728 30.8609 53.7662 32.9997 49.9942 32.9997ZM49.3098 15.5278H45.2694V20.4042H49.3098C51.0636 20.4042 52.0435 19.4243 52.0435 17.966C52.0435 16.5116 51.0636 15.5278 49.3098 15.5278ZM49.5781 24.1179H45.2694V29.3171H49.5781C51.4486 29.3171 52.343 28.1271 52.343 26.7039C52.343 25.2767 51.4486 24.1179 49.5781 24.1179Z" fill="white"/>
<path d="M60.9873 22.1545V1H65.1171V22.1545H60.9873Z" fill="#F7A600"/>
<path d="M78.4281 15.5278V32.9997H74.2983V15.5278H68.7725V11.8452H83.9578V15.5278H78.4281Z" fill="white"/>
</g>
<defs>
<clipPath id="clip0">
<rect width="79.9553" height="32" fill="white" transform="translate(4 1)"/>
</clipPath>
</defs>
</svg>
